<svg xmlns="http://www.w3.org/2000/svg" viewBox="0 0 71.19 67.31"><defs><style>.cls-1{fill:#f6f6f6;}.cls-2{fill:#e8c0a8;}.cls-3{fill:#f2c8bf;}.cls-4{fill:#1d1d1b;}.cls-5{fill:#f08575;}.cls-6{fill:#dadada;}.cls-7{fill:#d2948b;}.cls-8{fill:#e6b7af;}.cls-9{fill:#ededed;}</style></defs><g id="Ebene_2" data-name="Ebene 2"><g id="Ebene_1-2" data-name="Ebene 1"><ellipse class="cls-1" cx="9.68" cy="34.71" rx="9.68" ry="10.19"/><ellipse class="cls-1" cx="13.33" cy="21.39" rx="9.68" ry="10.19"/><ellipse class="cls-1" cx="61.51" cy="34.71" rx="9.68" ry="10.19"/><ellipse class="cls-1" cx="59.67" cy="26.98" rx="9.68" ry="10.19"/><path class="cls-2" d="M14.8,36.71c-3.15.09-5.69,2-5.78,4.42s2.6,4.73,6,4.85"/><ellipse class="cls-1" cx="49.99" cy="14.61" rx="9.68" ry="10.19"/><path class="cls-2" d="M56.23,46c3.16-.09,5.7-2,5.78-4.42s-2.59-4.73-6-4.85"/><rect class="cls-3" x="13.71" y="16.63" width="43.6" height="50.68" rx="20.54"/><path class="cls-4" d="M29.2,53.26a6.31,6.31,0,0,0,12.62-.13"/><rect class="cls-5" x="33.66" y="51.15" width="3.69" height="10.28" rx="1.85"/><path class="cls-6" d="M48.93,54.69c-.4-5.3-6-9.65-13-9.89-7.43-.26-13.6,4.15-13.8,9.85"/><rect class="cls-7" x="32.7" y="32.71" width="5.62" height="10.35" rx="2.81"/><circle class="cls-4" cx="25.01" cy="34.71" r="2"/><circle class="cls-4" cx="45.49" cy="34.71" r="2"/><rect class="cls-8" x="28.58" y="25.93" width="13.85" height="1.05" rx="0.53"/><rect class="cls-8" x="21.85" y="38.2" width="6.32" height="1.05" rx="0.53"/><rect class="cls-8" x="42.33" y="38.2" width="6.32" height="1.05" rx="0.53"/><circle class="cls-1" cx="43.49" cy="15.13" r="8.34"/><circle class="cls-1" cx="25.33" cy="13.62" r="8.34"/><circle class="cls-1" cx="33.66" cy="11.86" r="8.34"/><circle class="cls-9" cx="34.74" cy="11.74" r="11.74"/><path class="cls-1" d="M45.36,7.55c1.13,2.94-2.57,9.38-8,11.44S25,18.74,23.85,15.81A11.52,11.52,0,0,1,45.36,7.55Z"/></g></g></svg>